<?xml version="1.0" encoding="UTF-8" standalone="no"?>
<svg
   xmlns:dc="http://purl.org/dc/elements/1.1/"
   xmlns:cc="http://creativecommons.org/ns#"
   xmlns:rdf="http://www.w3.org/1999/02/22-rdf-syntax-ns#"
   xmlns:svg="http://www.w3.org/2000/svg"
   xmlns="http://www.w3.org/2000/svg"
   viewBox="0 0 184.07066 184.07066"
   height="184.07066"
   width="184.07066"
   xml:space="preserve"
   id="svg2"
   version="1.1"><metadata
     id="metadata8"><rdf:RDF><cc:Work
         rdf:about=""><dc:format>image/svg+xml</dc:format><dc:type
           rdf:resource="http://purl.org/dc/dcmitype/StillImage" /></cc:Work></rdf:RDF></metadata><defs
     id="defs6"><clipPath
       id="clipPath18"
       clipPathUnits="userSpaceOnUse"><path
         id="path16"
         d="M 0,138.053 H 138.053 V 0 H 0 Z" /></clipPath><clipPath
       id="clipPath148"
       clipPathUnits="userSpaceOnUse"><path
         id="path146"
         d="m 87.43,75.859 -1.916,-0.462 c -1.262,-0.305 -2.038,-1.576 -1.733,-2.839 v 0 c 0.305,-1.262 1.576,-2.038 2.838,-1.732 v 0 l 1.916,0.462 c 1.262,0.305 2.038,1.576 1.732,2.838 v 0 c -0.259,1.077 -1.222,1.8 -2.283,1.8 v 0 c -0.183,0 -0.369,-0.022 -0.554,-0.067" /></clipPath><linearGradient
       id="linearGradient158"
       spreadMethod="pad"
       gradientTransform="matrix(-1.5678246,6.486764,6.486764,1.5678246,87.639519,70.797707)"
       gradientUnits="userSpaceOnUse"
       y2="0"
       x2="1"
       y1="0"
       x1="0"><stop
         id="stop154"
         offset="0"
         style="stop-opacity:1;stop-color:#e25016" /><stop
         id="stop156"
         offset="1"
         style="stop-opacity:1;stop-color:#f3dfb7" /></linearGradient><clipPath
       id="clipPath168"
       clipPathUnits="userSpaceOnUse"><path
         id="path166"
         d="m 94.889,77.662 -1.916,-0.463 c -1.262,-0.305 -2.039,-1.576 -1.734,-2.838 v 0 c 0.306,-1.262 1.576,-2.038 2.839,-1.733 v 0 l 1.915,0.463 c 1.263,0.305 2.039,1.576 1.734,2.837 v 0 c -0.262,1.078 -1.224,1.8 -2.284,1.8 v 0 c -0.183,0 -0.369,-0.021 -0.554,-0.066" /></clipPath><linearGradient
       id="linearGradient178"
       spreadMethod="pad"
       gradientTransform="matrix(-1.5678246,6.486764,6.486764,1.5678246,95.232681,72.043487)"
       gradientUnits="userSpaceOnUse"
       y2="0"
       x2="1"
       y1="0"
       x1="0"><stop
         id="stop174"
         offset="0"
         style="stop-opacity:1;stop-color:#e25016" /><stop
         id="stop176"
         offset="1"
         style="stop-opacity:1;stop-color:#f3dfb7" /></linearGradient><clipPath
       id="clipPath188"
       clipPathUnits="userSpaceOnUse"><path
         id="path186"
         d="m 102.182,79.574 -1.677,-0.405 c -1.392,-0.336 -2.249,-1.738 -1.912,-3.131 v 0 c 0.337,-1.393 1.738,-2.249 3.13,-1.912 v 0 l 1.678,0.406 c 1.393,0.336 2.249,1.738 1.913,3.131 v 0 c -0.288,1.187 -1.349,1.985 -2.52,1.985 v 0 c -0.202,0 -0.407,-0.024 -0.612,-0.074" /></clipPath><linearGradient
       id="linearGradient198"
       spreadMethod="pad"
       gradientTransform="matrix(-1.7296075,7.1561289,6.7207441,1.6243768,102.93684,72.780724)"
       gradientUnits="userSpaceOnUse"
       y2="0"
       x2="1"
       y1="0"
       x1="0"><stop
         id="stop194"
         offset="0"
         style="stop-opacity:1;stop-color:#e25016" /><stop
         id="stop196"
         offset="1"
         style="stop-opacity:1;stop-color:#f3dfb7" /></linearGradient><clipPath
       id="clipPath208"
       clipPathUnits="userSpaceOnUse"><path
         id="path206"
         d="M 0,138.053 H 138.053 V 0 H 0 Z" /></clipPath><clipPath
       id="clipPath228"
       clipPathUnits="userSpaceOnUse"><path
         id="path226"
         d="m 80.826,72.309 c -0.221,-0.054 -0.358,-0.278 -0.305,-0.5 v 0 c 0.054,-0.221 0.277,-0.358 0.5,-0.304 v 0 l 2.782,0.672 -0.194,0.804 z" /></clipPath><linearGradient
       id="linearGradient240"
       spreadMethod="pad"
       gradientTransform="matrix(3.1843922,0.7696547,0.7696547,-3.1843922,80.521622,71.80954)"
       gradientUnits="userSpaceOnUse"
       y2="0"
       x2="1"
       y1="0"
       x1="0"><stop
         id="stop234"
         offset="0"
         style="stop-opacity:1;stop-color:#e25016" /><stop
         id="stop236"
         offset="0.974909"
         style="stop-opacity:1;stop-color:#df201b" /><stop
         id="stop238"
         offset="1"
         style="stop-opacity:1;stop-color:#ef7a1c" /></linearGradient><clipPath
       id="clipPath250"
       clipPathUnits="userSpaceOnUse"><path
         id="path248"
         d="M 0,138.053 H 138.053 V 0 H 0 Z" /></clipPath><clipPath
       id="clipPath262"
       clipPathUnits="userSpaceOnUse"><path
         id="path260"
         d="m 88.842,74.245 c -0.223,-0.054 -0.359,-0.276 -0.305,-0.498 v 0 c 0.054,-0.222 0.277,-0.358 0.499,-0.305 v 0 l 2.33,0.563 -0.194,0.804 z" /></clipPath><linearGradient
       id="linearGradient274"
       spreadMethod="pad"
       gradientTransform="matrix(2.7321167,0.6603416,0.6603416,-2.7321167,88.536743,73.746765)"
       gradientUnits="userSpaceOnUse"
       y2="0"
       x2="1"
       y1="0"
       x1="0"><stop
         id="stop268"
         offset="0"
         style="stop-opacity:1;stop-color:#e25016" /><stop
         id="stop270"
         offset="0.974909"
         style="stop-opacity:1;stop-color:#df201b" /><stop
         id="stop272"
         offset="1"
         style="stop-opacity:1;stop-color:#ef7a1c" /></linearGradient><clipPath
       id="clipPath284"
       clipPathUnits="userSpaceOnUse"><path
         id="path282"
         d="M 0,138.053 H 138.053 V 0 H 0 Z" /></clipPath><clipPath
       id="clipPath296"
       clipPathUnits="userSpaceOnUse"><path
         id="path294"
         d="m 95.825,75.934 c -0.222,-0.054 -0.358,-0.277 -0.304,-0.5 v 0 c 0.054,-0.221 0.277,-0.358 0.498,-0.304 v 0 l 2.33,0.564 -0.194,0.802 z" /></clipPath><linearGradient
       id="linearGradient308"
       spreadMethod="pad"
       gradientTransform="matrix(2.7321167,0.6603416,0.6603416,-2.7321167,95.520569,75.434723)"
       gradientUnits="userSpaceOnUse"
       y2="0"
       x2="1"
       y1="0"
       x1="0"><stop
         id="stop302"
         offset="0"
         style="stop-opacity:1;stop-color:#e25016" /><stop
         id="stop304"
         offset="0.974909"
         style="stop-opacity:1;stop-color:#df201b" /><stop
         id="stop306"
         offset="1"
         style="stop-opacity:1;stop-color:#ef7a1c" /></linearGradient><clipPath
       id="clipPath318"
       clipPathUnits="userSpaceOnUse"><path
         id="path316"
         d="M 0,138.053 H 138.053 V 0 H 0 Z" /></clipPath><clipPath
       id="clipPath330"
       clipPathUnits="userSpaceOnUse"><path
         id="path328"
         d="m 104.085,77.93 c -0.221,-0.054 -0.358,-0.277 -0.305,-0.498 v 0 c 0.054,-0.223 0.278,-0.36 0.499,-0.306 v 0 l 5.049,1.221 -0.194,0.803 z" /></clipPath><linearGradient
       id="linearGradient342"
       spreadMethod="pad"
       gradientTransform="matrix(5.4500165,1.3172469,1.3172469,-5.4500165,103.78062,77.431145)"
       gradientUnits="userSpaceOnUse"
       y2="0"
       x2="1"
       y1="0"
       x1="0"><stop
         id="stop336"
         offset="0"
         style="stop-opacity:1;stop-color:#e25016" /><stop
         id="stop338"
         offset="0.974909"
         style="stop-opacity:1;stop-color:#df201b" /><stop
         id="stop340"
         offset="1"
         style="stop-opacity:1;stop-color:#ef7a1c" /></linearGradient><clipPath
       id="clipPath352"
       clipPathUnits="userSpaceOnUse"><path
         id="path350"
         d="M 0,138.053 H 138.053 V 0 H 0 Z" /></clipPath></defs><g
     transform="matrix(1.3333333,0,0,-1.3333333,0,184.07067)"
     id="g10"><g
       id="g12"><g
         clip-path="url(#clipPath18)"
         id="g14"><g
           transform="translate(126.2129,69.0269)"
           id="g20"><path
             id="path22"
             style="fill:#010101;fill-opacity:1;fill-rule:nonzero;stroke:none"
             d="m 0,0 c 0,-31.583 -25.604,-57.187 -57.186,-57.187 -31.583,0 -57.186,25.604 -57.186,57.187 0,31.583 25.603,57.186 57.186,57.186 C -25.604,57.186 0,31.583 0,0" /></g><g
           transform="translate(69.0268,124.7119)"
           id="g24"><path
             id="path26"
             style="fill:#ee743b;fill-opacity:1;fill-rule:nonzero;stroke:none"
             d="m 0,0 c -14.874,0 -28.858,-5.792 -39.375,-16.31 -10.518,-10.518 -16.31,-24.501 -16.31,-39.375 0,-14.874 5.792,-28.858 16.31,-39.375 10.517,-10.518 24.501,-16.311 39.375,-16.311 14.874,0 28.858,5.793 39.375,16.311 10.518,10.517 16.31,24.501 16.31,39.375 0,14.874 -5.792,28.857 -16.31,39.375 C 28.858,-5.792 14.874,0 0,0 m 0,-114.373 c -15.676,0 -30.414,6.105 -41.498,17.19 -11.085,11.084 -17.189,25.822 -17.189,41.498 0,15.676 6.104,30.413 17.189,41.497 11.084,11.085 25.822,17.19 41.498,17.19 15.676,0 30.414,-6.105 41.498,-17.19 11.085,-11.084 17.189,-25.821 17.189,-41.497 0,-15.676 -6.104,-30.414 -17.189,-41.498 C 30.414,-108.268 15.676,-114.373 0,-114.373" /></g><g
           transform="translate(106.3349,69.0269)"
           id="g28"><path
             id="path30"
             style="fill:none;stroke:#ee743b;stroke-width:7;stroke-linecap:butt;stroke-linejoin:miter;stroke-miterlimit:22.9260006;stroke-dasharray:none;stroke-opacity:1"
             d="m 0,0 c 0,-20.604 -16.704,-37.308 -37.308,-37.308 -20.605,0 -37.308,16.704 -37.308,37.308 0,20.604 16.703,37.308 37.308,37.308 C -16.704,37.308 0,20.604 0,0 Z" /></g><g
           transform="translate(31.04,92.4644)"
           id="g32"><path
             id="path34"
             style="fill:#f3dfb7;fill-opacity:1;fill-rule:nonzero;stroke:none"
             d="M 0,0 1.555,2.538 2.078,2.217 0.183,-0.876 -5.369,2.525 -5.029,3.081 Z" /></g><g
           transform="translate(34.5806,97.6402)"
           id="g36"><path
             id="path38"
             style="fill:#f3dfb7;fill-opacity:1;fill-rule:nonzero;stroke:none"
             d="M 0,0 2.027,2.427 2.499,2.033 0.054,-0.894 -4.943,3.28 -2.529,6.171 -2.058,5.778 -4.055,3.387 -2.284,1.908 -0.436,4.121 0.035,3.728 -1.813,1.514 Z" /></g><g
           transform="translate(38.8706,102.3164)"
           id="g40"><path
             id="path42"
             style="fill:#f3dfb7;fill-opacity:1;fill-rule:nonzero;stroke:none"
             d="m 0,0 2.588,2.297 0.408,-0.46 -3.133,-2.779 -0.407,0.459 -0.989,6.187 -2.448,-2.174 -0.408,0.46 2.993,2.656 0.408,-0.46 z" /></g><g
           transform="translate(43.9541,106.4395)"
           id="g44"><path
             id="path46"
             style="fill:#f3dfb7;fill-opacity:1;fill-rule:nonzero;stroke:none"
             d="M 0,0 2.9,1.888 3.235,1.374 -0.275,-0.912 -0.61,-0.397 -0.67,5.868 -3.415,4.081 -3.75,4.596 -0.396,6.779 -0.061,6.263 Z" /></g><g
           transform="translate(49.8598,109.8848)"
           id="g48"><path
             id="path50"
             style="fill:#f3dfb7;fill-opacity:1;fill-rule:nonzero;stroke:none"
             d="M 0,0 2.879,1.308 3.133,0.75 -0.339,-0.828 -3.032,5.1 0.397,6.658 0.652,6.099 -2.185,4.81 -1.231,2.71 1.394,3.903 1.648,3.344 -0.977,2.151 Z" /></g><g
           transform="translate(57.7544,118.9229)"
           id="g52"><path
             id="path54"
             style="fill:#f3dfb7;fill-opacity:1;fill-rule:nonzero;stroke:none"
             d="m 0,0 0.166,-0.591 -1.926,-0.54 1.592,-5.678 -0.627,-0.176 -1.592,5.678 -1.925,-0.54 -0.166,0.592 z" /></g><g
           transform="translate(61.0952,119.5205)"
           id="g56"><path
             id="path58"
             style="fill:#f3dfb7;fill-opacity:1;fill-rule:nonzero;stroke:none"
             d="M 0,0 0.644,0.098 1.631,-6.338 0.987,-6.437 Z M 0.559,0.895 C 0.476,0.781 0.364,0.714 0.223,0.692 0.082,0.671 -0.045,0.701 -0.158,0.785 c -0.113,0.083 -0.18,0.194 -0.202,0.336 -0.022,0.141 0.009,0.268 0.092,0.381 0.083,0.113 0.195,0.18 0.336,0.202 C 0.209,1.725 0.336,1.695 0.449,1.612 0.562,1.528 0.629,1.417 0.651,1.276 0.673,1.135 0.642,1.008 0.559,0.895" /></g><g
           transform="translate(69.8989,120.1768)"
           id="g60"><path
             id="path62"
             style="fill:#f3dfb7;fill-opacity:1;fill-rule:nonzero;stroke:none"
             d="m 0,0 0.651,0.013 0.121,-6.511 -0.558,-0.01 -3.726,5.234 0.099,-5.302 -0.65,-0.012 -0.122,6.51 0.567,0.011 3.717,-5.22 z" /></g><g
           transform="translate(79.123,114.7525)"
           id="g64"><path
             id="path66"
             style="fill:#f3dfb7;fill-opacity:1;fill-rule:nonzero;stroke:none"
             d="M 0,0 2.544,-0.655 2.14,3.044 Z m 2.801,-3.007 -0.186,1.7 -2.992,0.77 -0.983,-1.399 -0.667,0.172 4.046,5.682 0.648,-0.167 0.801,-6.929 z" /></g><g
           transform="translate(87.3989,110.2412)"
           id="g68"><path
             id="path70"
             style="fill:#f3dfb7;fill-opacity:1;fill-rule:nonzero;stroke:none"
             d="m 0,0 c 0.647,-0.299 1.284,-0.314 1.912,-0.045 0.627,0.27 1.097,0.742 1.41,1.418 0.312,0.675 0.369,1.339 0.17,1.992 -0.2,0.653 -0.623,1.129 -1.271,1.429 L 0.533,5.576 -1.687,0.782 Z M 2.479,5.351 C 3.284,4.978 3.817,4.384 4.079,3.569 4.34,2.755 4.279,1.934 3.896,1.106 3.512,0.28 2.925,-0.298 2.135,-0.625 1.344,-0.952 0.546,-0.93 -0.258,-0.557 l -2.279,1.056 2.738,5.908 z" /></g><g
           transform="translate(96.1474,111.4268)"
           id="g72"><path
             id="path74"
             style="fill:#f3dfb7;fill-opacity:1;fill-rule:nonzero;stroke:none"
             d="M 0,0 -1.54,-2.192 0.059,-3.315 C 0.354,-3.521 0.68,-3.59 1.04,-3.521 c 0.359,0.07 0.644,0.254 0.855,0.554 0.213,0.304 0.291,0.636 0.233,0.995 -0.059,0.359 -0.234,0.642 -0.529,0.849 z m -0.649,-6.75 0.253,3.004 -1.497,1.052 -1.497,-2.131 -0.533,0.374 3.743,5.327 2.132,-1.497 C 2.394,-0.931 2.66,-1.352 2.753,-1.883 2.846,-2.414 2.737,-2.9 2.427,-3.342 2.174,-3.702 1.841,-3.947 1.427,-4.077 1.014,-4.208 0.605,-4.203 0.203,-4.064 l -0.244,-3.114 z" /></g><g
           transform="translate(98.915,102.5547)"
           id="g76"><path
             id="path78"
             style="fill:#f3dfb7;fill-opacity:1;fill-rule:nonzero;stroke:none"
             d="M 0,0 2.269,-2.204 1.841,-2.644 -0.895,0.014 3.642,4.684 6.344,2.059 5.916,1.619 3.682,3.79 2.074,2.135 4.143,0.126 3.715,-0.314 1.646,1.695 Z" /></g><g
           transform="translate(103.6924,96.1529)"
           id="g80"><path
             id="path82"
             style="fill:#f3dfb7;fill-opacity:1;fill-rule:nonzero;stroke:none"
             d="m 0,0 c -0.358,0.476 -0.552,0.968 -0.581,1.477 -0.03,0.509 0.102,0.98 0.398,1.412 L 0.413,2.639 C 0.162,2.302 0.041,1.939 0.05,1.551 0.059,1.162 0.213,0.77 0.511,0.373 0.802,-0.014 1.113,-0.25 1.446,-0.338 1.78,-0.424 2.088,-0.362 2.37,-0.149 2.643,0.056 2.773,0.31 2.764,0.612 2.753,0.915 2.651,1.35 2.457,1.917 2.229,2.592 2.104,3.057 2.083,3.313 2.022,3.888 2.218,4.345 2.669,4.684 3.11,5.016 3.573,5.124 4.06,5.009 4.546,4.894 4.959,4.61 5.298,4.159 5.604,3.753 5.763,3.322 5.776,2.866 5.789,2.41 5.687,1.988 5.467,1.598 L 4.892,1.852 C 5.288,2.522 5.255,3.165 4.793,3.779 4.551,4.102 4.275,4.302 3.968,4.381 3.66,4.46 3.365,4.393 3.082,4.181 2.824,3.987 2.698,3.752 2.704,3.477 2.709,3.202 2.8,2.808 2.976,2.296 3.053,2.059 3.108,1.89 3.143,1.787 3.177,1.685 3.222,1.532 3.277,1.33 3.332,1.127 3.364,0.971 3.373,0.861 3.382,0.751 3.386,0.613 3.384,0.444 3.383,0.276 3.358,0.138 3.313,0.029 3.266,-0.079 3.198,-0.196 3.11,-0.32 3.021,-0.445 2.91,-0.558 2.776,-0.658 2.335,-0.99 1.861,-1.095 1.354,-0.972 0.846,-0.85 0.396,-0.525 0,0" /></g><g
           transform="translate(113.1875,95.1577)"
           id="g84"><path
             id="path86"
             style="fill:#f3dfb7;fill-opacity:1;fill-rule:nonzero;stroke:none"
             d="m 0,0 c -0.136,0.037 -0.239,0.117 -0.311,0.241 -0.07,0.123 -0.087,0.253 -0.05,0.388 0.036,0.136 0.117,0.239 0.24,0.31 C 0.003,1.01 0.133,1.027 0.268,0.991 0.403,0.954 0.507,0.874 0.577,0.75 0.648,0.626 0.666,0.497 0.629,0.361 0.592,0.226 0.512,0.123 0.389,0.052 0.265,-0.02 0.135,-0.037 0,0 m -1.037,0.199 0.324,-0.565 -5.647,-3.24 -0.325,0.564 z" /></g><g
           transform="translate(112.0674,78.6075)"
           id="g88"><path
             id="path90"
             style="fill:#ee743b;fill-opacity:1;fill-rule:nonzero;stroke:none"
             d="M 0,0 -0.355,1.47 C -0.481,1.991 -0.803,2.433 -1.261,2.712 -1.718,2.992 -2.258,3.076 -2.778,2.95 L -5.809,2.217 c -1.359,1.431 -3.38,2.046 -5.325,1.575 l -1.943,-0.469 c -1.171,-0.283 -2.218,-0.947 -2.978,-1.87 -1.098,0.474 -2.332,0.587 -3.503,0.303 l -1.944,-0.469 c -1.171,-0.284 -2.217,-0.948 -2.977,-1.87 -1.099,0.474 -2.333,0.586 -3.503,0.303 l -1.944,-0.47 c -1.944,-0.469 -3.463,-1.94 -4.018,-3.833 l -1.451,-0.35 c -0.717,-0.173 -1.324,-0.616 -1.709,-1.247 -0.385,-0.63 -0.502,-1.372 -0.329,-2.089 0.358,-1.481 1.855,-2.396 3.336,-2.038 l 1.453,0.351 c 1.043,-1.092 2.508,-1.728 4.036,-1.728 0.434,0 0.867,0.052 1.287,0.153 l 1.945,0.47 c 1.17,0.283 2.217,0.947 2.977,1.87 1.098,-0.474 2.332,-0.586 3.503,-0.304 l 1.944,0.47 c 1.171,0.283 2.217,0.947 2.977,1.87 1.099,-0.474 2.332,-0.587 3.503,-0.303 l 1.945,0.469 c 1.943,0.47 3.462,1.941 4.016,3.833 l 3.032,0.733 c 0.513,0.124 0.966,0.454 1.241,0.904 C 0.042,-1.061 0.126,-0.521 0,0" /></g><g
           transform="translate(87.2124,55.4458)"
           id="g92"><path
             id="path94"
             style="fill:#ee743b;fill-opacity:1;fill-rule:nonzero;stroke:none"
             d="m 0,0 c 0,0 -9.439,-1.41 -13.235,6.479 -6.554,13.618 10.408,18.972 1.245,25.701 0,0 4.877,1.524 7.568,-3.603 0,0 3.256,7.427 -6.157,13.703 0,0 17.575,0.887 16.027,-17.991 0,0 3.059,2.117 2.697,7.32 0,0 11.132,-22.376 -7.687,-25.944 0,0 3.933,6.292 -0.936,8.812 C -5.117,16.877 -13.436,6.285 0,0" /></g><g
           transform="translate(63.4018,61.0454)"
           id="g96"><path
             id="path98"
             style="fill:#ee743b;fill-opacity:1;fill-rule:nonzero;stroke:none"
             d="m 0,0 c 0,0 -6.513,1.976 -6.549,8.22 -0.061,10.778 12.506,9.044 8.658,16.18 0,0 3.608,-0.508 3.775,-4.634 0,0 4.368,3.791 0.22,10.712 0,0 11.596,-4.8 4.829,-16.491 0,0 2.619,0.429 3.976,3.892 0,0 0.335,-17.82 -12.883,-14.368 0,0 4.458,2.852 2.09,5.964 C 1.86,12.439 -6.736,8.157 0,0" /></g><g
           transform="translate(55.521,80.1328)"
           id="g100"><path
             id="path102"
             style="fill:#ee743b;fill-opacity:1;fill-rule:nonzero;stroke:none"
             d="m 0,0 z m -19.992,-2.972 c -0.017,-0.134 -0.026,-0.273 -0.026,-0.417 0,-0.698 0.27,-1.137 0.644,-1.382 -0.279,0.467 -0.518,1.061 -0.618,1.799 m -0.881,-7.609 c 0.44,-0.52 0.727,-1.174 0.798,-1.899 0.02,0.025 0.04,0.051 0.061,0.077 0.352,0.445 0.702,0.939 1.048,1.457 -0.658,0.042 -1.298,0.165 -1.907,0.365 m -0.691,-3.307 z m 20.662,-4.15 z m -25.188,0.698 c -0.032,-0.154 -0.04,-0.293 -0.04,-0.415 0,-1.25 0.857,-2.587 3.262,-2.587 1.093,0 1.991,0.234 2.784,0.697 -0.434,-0.108 -0.885,-0.167 -1.355,-0.167 -2.14,0 -3.804,0.932 -4.651,2.472 m 25.01,-1.725 2.097,-2.097 z m -21.788,-7.216 c -2.466,0 -4.743,0.804 -6.41,2.263 -1.8,1.574 -2.79,3.799 -2.79,6.263 0,5.597 5.44,8.406 8.485,8.406 0.154,0 0.305,-0.009 0.454,-0.027 -0.206,0.162 -0.404,0.334 -0.593,0.519 -1.441,1.406 -2.235,3.348 -2.235,5.468 0,2.965 1.366,5.593 3.845,7.401 2.084,1.519 4.832,2.355 7.737,2.355 2.822,0 4.93,-0.43 6.469,-0.745 0.858,-0.175 1.598,-0.326 2.103,-0.326 1.964,0 3.278,0.262 4.147,0.435 0.559,0.112 1.001,0.2 1.489,0.2 2.1,0 3.684,-1.567 3.684,-3.644 C 3.517,1.396 3.208,0.739 2.936,0.16 2.684,-0.378 2.302,-1.191 1.804,-2.853 1.802,-2.858 1.801,-2.863 1.799,-2.868 0.985,-5.53 -0.406,-11.68 -0.813,-15.721 c 0.13,0.014 0.267,0.022 0.408,0.022 1.944,0 3.525,-1.581 3.525,-3.525 0,-1.454 -0.723,-2.394 -1.251,-3.08 -0.003,-0.004 -0.007,-0.008 -0.01,-0.013 -0.88,-1.132 -3.362,-3.766 -7.384,-3.766 -2.736,0 -4.339,1.254 -5.203,2.307 -0.857,1.046 -1.387,2.397 -1.557,3.952 -0.641,-1.007 -1.343,-1.96 -2.143,-2.807 -2.32,-2.456 -5.08,-3.65 -8.44,-3.65" /></g><g
           transform="translate(53.2793,71.0533)"
           id="g104"><path
             id="path106"
             style="fill:#ee743b;fill-opacity:1;fill-rule:nonzero;stroke:none"
             d="m 0,0 z m 5.091,-2.989 c 0.006,-0.021 0.012,-0.042 0.018,-0.064 0.056,0.122 0.117,0.243 0.183,0.363 0.162,0.294 0.346,0.564 0.549,0.808 C 5.798,-1.785 5.759,-1.686 5.723,-1.585 5.599,-2.025 5.415,-2.52 5.091,-2.989 m -6.298,-13.996 z m 0.146,-5.931 c -2.558,0 -3.723,1.827 -3.723,3.524 0,1.249 0.689,2.139 1.059,2.617 0.025,0.033 0.051,0.065 0.075,0.097 0.306,0.427 0.655,1.017 0.948,2.13 l 0.009,0.032 c 0.597,2.175 1.393,6.616 1.778,9.019 -0.746,0.641 -1.21,1.585 -1.21,2.655 0,0.908 0.323,1.832 0.909,2.602 0.412,0.542 0.92,0.958 1.477,1.223 0.81,2.756 2.199,4.841 4.138,6.204 1.653,1.162 3.634,1.751 5.891,1.751 2.172,0 3.963,-0.46 5.321,-1.369 1.582,-1.058 2.49,-2.697 2.49,-4.497 0,-0.913 -0.226,-1.772 -0.623,-2.521 0.889,-0.742 1.377,-1.816 1.377,-3.035 0,-1.103 -0.305,-2.191 -0.627,-3.343 -0.073,-0.263 -0.147,-0.528 -0.218,-0.793 0.032,0.001 0.065,0.001 0.098,0.001 1.944,0 3.525,-1.581 3.525,-3.526 0,-1.454 -0.723,-2.393 -1.251,-3.08 -0.003,-0.004 -0.006,-0.007 -0.009,-0.012 -0.881,-1.132 -3.363,-3.766 -7.385,-3.766 -2.199,0 -3.673,0.725 -4.59,1.438 -0.027,-0.106 -0.054,-0.207 -0.082,-0.307 -0.669,-2.559 -2.747,-4.286 -4.376,-5.286 -1.321,-0.811 -3.424,-1.758 -5.001,-1.758" /></g><g
           transform="translate(80.7812,70.0772)"
           id="g108"><path
             id="path110"
             style="fill:#ee743b;fill-opacity:1;fill-rule:nonzero;stroke:none"
             d="m 0,0 z m -0.813,-4.514 z m -1.218,-0.917 z m -1.487,-1.548 z m -2.423,-9.048 c -2.729,0 -4.363,1.102 -5.253,2.025 -1.181,1.224 -1.804,2.869 -1.804,4.754 0,1.772 0.438,3.278 0.79,4.489 0.069,0.236 0.135,0.463 0.194,0.678 -0.743,0.853 -0.825,1.855 -0.825,2.255 0,0.659 0.169,1.39 0.465,2.008 0.634,1.322 1.822,2.112 3.179,2.112 0.456,0 1.629,0.828 2.555,2.325 0.002,0.003 0.004,0.007 0.007,0.01 0.94,1.506 2.148,2.269 3.589,2.269 2.021,0 3.605,-1.583 3.605,-3.604 0,-0.513 -0.08,-1.038 -0.185,-1.561 0.939,-0.599 1.534,-1.628 1.534,-2.844 0,-2.057 -1.23,-3.736 -2.935,-4.195 -0.004,-0.016 -0.008,-0.032 -0.013,-0.048 0.301,0.09 0.638,0.147 1.01,0.147 1.922,0 3.486,-1.545 3.486,-3.445 0,-0.89 -0.315,-1.78 -0.912,-2.575 -0.005,-0.008 -0.011,-0.015 -0.017,-0.023 -1.263,-1.652 -4.66,-4.777 -8.47,-4.777" /></g><g
           transform="translate(97.7783,42.7398)"
           id="g112"><path
             id="path114"
             style="fill:#ee743b;fill-opacity:1;fill-rule:nonzero;stroke:none"
             d="m 0,0 c -1.803,0 -3.361,0.59 -4.507,1.705 -1.133,1.103 -1.757,2.65 -1.757,4.359 0,2.658 0.527,4.673 1.194,7.227 0.365,1.401 0.78,2.989 1.212,5.051 0.721,3.443 0.836,4.77 0.877,5.585 -0.119,0.315 -0.266,0.809 -0.266,1.466 0,0.847 0.335,2.922 3.441,3.895 1.117,0.35 2.528,0.542 3.973,0.542 0.969,0 1.814,-0.226 2.52,-0.674 1.017,0.408 2.169,0.674 3.394,0.674 4.154,0 7.057,-3.016 7.057,-7.335 0,-2.48 -0.963,-5.185 -2.575,-7.237 -2,-2.545 -4.819,-3.947 -7.935,-3.947 -0.299,0 -0.59,0.016 -0.872,0.047 C 5.55,10.24 5.372,9.119 5.287,8.296 6.562,7.788 7.414,6.586 7.414,5.112 7.414,3.633 6.45,2.256 4.699,1.236 3.329,0.439 1.66,0 0,0" /></g><g
           transform="translate(92.4004,69.2046)"
           id="g116"><path
             id="path118"
             style="fill:#ee743b;fill-opacity:1;fill-rule:nonzero;stroke:none"
             d="M 0,0 Z M 2.448,-2.57 H 2.447 Z M -0.02,-15.154 c -1.503,0 -2.694,0.46 -3.605,1.108 -1.18,-0.599 -2.698,-1.108 -4.451,-1.108 -1.987,0 -3.803,0.731 -5.114,2.059 -0.958,0.971 -2.102,2.723 -2.102,5.554 0,2.825 0.936,5.452 2.634,7.395 1.399,1.602 3.991,3.511 8.392,3.511 1.714,0 2.828,-0.383 3.504,-0.662 0.133,0.039 0.273,0.081 0.387,0.115 0.847,0.257 1.807,0.547 2.737,0.547 2.033,0 3.565,-1.532 3.565,-3.564 0,-0.76 -0.219,-1.517 -0.521,-2.564 -0.171,-0.591 -0.371,-1.284 -0.536,-2.014 0.075,0.005 0.152,0.006 0.231,0.006 1.943,0 3.524,-1.581 3.524,-3.525 0,-1.453 -0.723,-2.393 -1.25,-3.08 -0.003,-0.004 -0.007,-0.008 -0.01,-0.013 -0.881,-1.132 -3.363,-3.765 -7.385,-3.765" /></g><g
           transform="translate(47.7734,71.2676)"
           id="g120"><path
             id="path122"
             style="fill:#010101;fill-opacity:1;fill-rule:nonzero;stroke:none"
             d="M 0,0 C 0.675,2.937 2.104,6.151 2.977,8.096 0.596,6.151 -1.746,1.984 -2.58,0 Z m 6.667,-10.2 c 0.278,0.279 0.437,0.397 0.675,0.397 0.358,0 0.556,-0.318 0.556,-0.556 0,-0.436 -0.238,-0.754 -0.635,-1.269 -0.833,-1.072 -2.54,-2.62 -5.04,-2.62 -2.619,0 -3.85,1.787 -3.85,4.406 0,2.261 0.635,5.794 0.953,7.342 -2.025,0 -3.096,-0.913 -4.088,-2.778 -2.501,-4.763 -4.723,-9.168 -10.359,-9.168 -3.571,0 -6.231,2.222 -6.231,5.556 0,3.731 3.89,5.437 5.517,5.437 0.397,0 0.556,-0.238 0.556,-0.516 0,-0.476 -0.715,-1.031 -0.715,-1.945 0,-1.23 0.675,-2.063 2.302,-2.063 2.421,0 4.683,3.77 6.548,6.786 2.223,3.612 4.406,7.779 6.827,9.962 -1.39,0.437 -3.255,0.793 -5.16,0.793 -2.262,0 -3.849,-1.428 -3.849,-2.897 0,-1.15 0.635,-1.746 1.667,-1.746 0.635,0 0.912,0.397 1.19,0.397 0.239,0 0.437,-0.159 0.437,-0.437 0,-1.468 -1.905,-4.008 -4.683,-4.008 -2.461,0 -4.525,1.826 -4.525,4.604 0,4.286 4.128,6.786 8.613,6.786 4.246,0 6.587,-1.071 8.572,-1.071 3.254,0 5,0.635 5.636,0.635 0.515,0 0.714,-0.318 0.714,-0.675 C 8.295,10.596 7.66,10.041 6.708,6.866 5.675,3.492 3.85,-4.763 3.85,-8.811 c 0,-1.389 0.437,-2.222 1.31,-2.222 0.674,0 0.992,0.318 1.507,0.833" /></g><g
           transform="translate(62.4575,67.7749)"
           id="g124"><path
             id="path126"
             style="fill:#010101;fill-opacity:1;fill-rule:nonzero;stroke:none"
             d="m 0,0 c -1.23,0 -1.587,-1.389 -1.825,-2.579 -0.516,-2.659 -1.27,-6.945 -1.905,-9.247 -0.754,-2.938 -5.239,-4.842 -6.509,-4.842 -0.555,0 -0.754,0.158 -0.754,0.555 0,0.278 0.317,0.635 0.555,0.953 0.517,0.714 1.032,1.627 1.429,3.135 0.873,3.175 2.104,10.636 2.104,11.192 0,0.476 -0.199,0.714 -0.794,0.714 -0.397,0 -0.635,0.238 -0.635,0.556 0,0.555 0.516,1.19 0.873,1.19 0.794,0 0.992,0.238 1.19,1.032 1.311,5.556 3.784,6.746 6.403,6.746 3.334,0 4.842,-1.349 4.842,-2.897 0,-1.31 -0.993,-2.302 -2.143,-2.302 -1.548,0 -2.144,0.992 -2.144,2.024 0,0.635 -0.237,0.873 -0.793,0.873 -0.992,0 -1.588,-2.818 -1.588,-3.889 0,-1.111 1.389,-1.429 2.58,-1.469 1.27,-0.039 3.718,0.081 4.511,0.081 0.874,0 1.311,-0.357 1.311,-1.032 0,-1.587 -1.271,-4.088 -1.271,-6.707 0,-1.032 0.596,-1.627 1.31,-1.627 0.675,0 0.992,0.317 1.508,0.833 0.278,0.278 0.437,0.396 0.675,0.396 0.357,0 0.555,-0.317 0.555,-0.555 0,-0.437 -0.238,-0.754 -0.634,-1.27 -0.834,-1.071 -2.54,-2.619 -5.041,-2.619 -2.619,0 -3.929,1.468 -3.929,3.294 0,2.54 1.31,5.119 1.31,6.548 C 1.191,-0.357 0.833,0 0,0" /></g><g
           transform="translate(77.102,66.3462)"
           id="g128"><path
             id="path130"
             style="fill:#010101;fill-opacity:1;fill-rule:nonzero;stroke:none"
             d="m 0,0 c -0.317,-1.15 -0.833,-3.175 -0.833,-4.484 0,-1.191 0.595,-1.627 1.548,-1.627 0.793,0 1.587,0.754 2.222,1.269 0.278,0.238 0.476,0.397 0.714,0.397 0.318,0 0.516,-0.238 0.516,-0.476 0,-0.198 -0.079,-0.476 -0.317,-0.794 -1.032,-1.349 -3.651,-3.611 -6.112,-3.611 -2.857,0 -4.088,1.706 -4.088,3.809 0,2.54 1.231,4.525 1.231,6.509 0,0.516 -1.072,0.199 -1.072,0.913 0,0.397 0.238,1.151 0.675,1.151 2.103,0 4.048,2.064 5.08,3.731 C -0.04,7.422 0.278,7.66 0.635,7.66 1.072,7.66 1.27,7.342 1.27,7.025 1.27,6.152 0.715,4.524 0.715,3.85 0.715,3.334 0.874,3.056 2.064,3.056 2.381,3.056 2.62,2.937 2.62,2.62 2.62,1.826 2.183,1.27 1.707,1.27 0.715,1.27 0.278,0.953 0,0" /></g><g
           transform="translate(88.4922,67.8545)"
           id="g132"><path
             id="path134"
             style="fill:#010101;fill-opacity:1;fill-rule:nonzero;stroke:none"
             d="m 0,0 c -2.262,0 -3.254,-4.167 -3.254,-6.35 0,-1.032 0.476,-1.865 1.349,-1.865 0.754,0 1.548,0.674 2.064,1.865 0.476,1.032 1.031,3.651 1.031,5.199 C 1.19,-0.437 0.833,0 0,0 m 3.889,-10.834 c -2.381,0 -3.056,2.103 -3.056,2.103 0,0 -2.103,-2.103 -5,-2.103 -2.342,0 -4.247,1.586 -4.247,4.643 0,3.929 2.381,7.937 8.057,7.937 2.103,0 2.699,-0.754 3.334,-0.754 0.674,0 2.38,0.754 3.294,0.754 0.357,0 0.594,-0.159 0.594,-0.595 0,-0.953 -1.388,-4.048 -1.388,-7.144 0,-1.032 0.634,-1.627 1.349,-1.627 0.675,0 0.992,0.318 1.508,0.833 0.278,0.279 0.437,0.397 0.675,0.397 0.357,0 0.555,-0.318 0.555,-0.556 0,-0.436 -0.238,-0.754 -0.634,-1.269 -0.834,-1.072 -2.54,-2.619 -5.041,-2.619" /></g><g
           transform="translate(103.4931,59.0435)"
           id="g136"><path
             id="path138"
             style="fill:#010101;fill-opacity:1;fill-rule:nonzero;stroke:none"
             d="M 0,0 C 2.223,0 3.175,4.445 3.175,6.589 3.175,7.62 2.817,8.097 1.944,8.097 1.19,8.097 0.357,7.342 -0.158,6.152 -0.635,5.12 -1.27,2.818 -1.27,1.151 -1.27,0.437 -0.833,0 0,0 m -5.992,9.089 c 0,0.873 2.142,1.468 4.444,1.468 0.873,0 1.35,-0.357 1.35,-1.032 0,-0.635 -0.119,-1.111 -0.119,-1.111 0.357,0.556 2.261,2.143 4.683,2.143 2.5,0 4.087,-1.667 4.087,-4.366 0,-3.452 -2.658,-8.214 -7.54,-8.214 -1.707,0 -2.818,0.833 -3.056,1.071 -0.476,-1.865 -1.309,-6.152 -1.309,-7.898 0,-1.309 0.754,-1.865 1.627,-1.865 0.356,0 0.555,-0.159 0.555,-0.476 0,-0.635 -1.826,-2.143 -4.445,-2.143 -2.103,0 -3.294,1.27 -3.294,3.095 0,3.572 1.112,5.795 2.342,11.668 0.873,4.168 0.912,5.477 0.952,6.39 0,0.675 -0.277,0.754 -0.277,1.27" /></g><path
           id="path140"
           style="fill:#ee743b;fill-opacity:1;fill-rule:nonzero;stroke:none"
           d="M 36.997,67.628 H 33.08 v 2.95 h 3.917 z" /></g></g><g
       id="g142"><g
         clip-path="url(#clipPath148)"
         id="g144"><g
           id="g150"><g
             id="g152"><path
               id="path160"
               style="fill:url(#linearGradient158);stroke:none"
               d="m 87.43,75.859 -1.916,-0.462 c -1.262,-0.305 -2.038,-1.576 -1.733,-2.839 v 0 c 0.305,-1.262 1.576,-2.038 2.838,-1.732 v 0 l 1.916,0.462 c 1.262,0.305 2.038,1.576 1.732,2.838 v 0 c -0.259,1.077 -1.222,1.8 -2.283,1.8 v 0 c -0.183,0 -0.369,-0.022 -0.554,-0.067" /></g></g></g></g><g
       id="g162"><g
         clip-path="url(#clipPath168)"
         id="g164"><g
           id="g170"><g
             id="g172"><path
               id="path180"
               style="fill:url(#linearGradient178);stroke:none"
               d="m 94.889,77.662 -1.916,-0.463 c -1.262,-0.305 -2.039,-1.576 -1.734,-2.838 v 0 c 0.306,-1.262 1.576,-2.038 2.839,-1.733 v 0 l 1.915,0.463 c 1.263,0.305 2.039,1.576 1.734,2.837 v 0 c -0.262,1.078 -1.224,1.8 -2.284,1.8 v 0 c -0.183,0 -0.369,-0.021 -0.554,-0.066" /></g></g></g></g><g
       id="g182"><g
         clip-path="url(#clipPath188)"
         id="g184"><g
           id="g190"><g
             id="g192"><path
               id="path200"
               style="fill:url(#linearGradient198);stroke:none"
               d="m 102.182,79.574 -1.677,-0.405 c -1.392,-0.336 -2.249,-1.738 -1.912,-3.131 v 0 c 0.337,-1.393 1.738,-2.249 3.13,-1.912 v 0 l 1.678,0.406 c 1.393,0.336 2.249,1.738 1.913,3.131 v 0 c -0.288,1.187 -1.349,1.985 -2.52,1.985 v 0 c -0.202,0 -0.407,-0.024 -0.612,-0.074" /></g></g></g></g><g
       id="g202"><g
         clip-path="url(#clipPath208)"
         id="g204"><g
           transform="translate(85.7417,75.438)"
           id="g210"><path
             id="path212"
             style="fill:#3b1612;fill-opacity:1;fill-rule:nonzero;stroke:none"
             d="m 0,0 c -1.233,-0.298 -1.994,-1.543 -1.696,-2.777 0.298,-1.233 1.544,-1.994 2.777,-1.696 l 1.702,0.411 c 1.233,0.299 1.994,1.544 1.695,2.778 C 4.18,-0.051 2.935,0.709 1.702,0.412 Z M 2.97,-4.835 1.268,-5.247 c -1.66,-0.4 -3.337,0.623 -3.738,2.283 -0.401,1.66 0.623,3.337 2.283,3.738 L 1.515,1.186 C 3.174,1.586 4.851,0.562 5.252,-1.097 5.654,-2.757 4.629,-4.434 2.97,-4.835" /></g><g
           transform="translate(93.1152,77.2202)"
           id="g214"><path
             id="path216"
             style="fill:#3b1612;fill-opacity:1;fill-rule:nonzero;stroke:none"
             d="m 0,0 c -1.233,-0.298 -1.994,-1.543 -1.695,-2.777 0.298,-1.233 1.543,-1.994 2.776,-1.696 l 1.702,0.411 c 1.233,0.299 1.993,1.544 1.696,2.778 C 4.181,-0.051 2.935,0.709 1.702,0.412 Z M 2.97,-4.835 1.269,-5.247 c -1.661,-0.401 -3.337,0.623 -3.739,2.283 -0.401,1.66 0.623,3.337 2.283,3.738 l 1.702,0.412 c 1.66,0.4 3.337,-0.624 3.738,-2.283 0.4,-1.66 -0.623,-3.337 -2.283,-3.738" /></g><g
           transform="translate(100.4892,79.0025)"
           id="g218"><path
             id="path220"
             style="fill:#3b1612;fill-opacity:1;fill-rule:nonzero;stroke:none"
             d="m 0,0 c -1.233,-0.298 -1.994,-1.543 -1.696,-2.777 0.299,-1.233 1.544,-1.994 2.777,-1.696 l 1.701,0.411 c 1.234,0.299 1.994,1.544 1.697,2.777 C 4.181,-0.051 2.935,0.709 1.701,0.412 Z M 2.97,-4.835 1.268,-5.247 c -1.66,-0.401 -3.336,0.623 -3.738,2.283 -0.401,1.66 0.623,3.337 2.283,3.738 L 1.515,1.186 C 3.175,1.586 4.852,0.562 5.252,-1.097 5.653,-2.757 4.63,-4.434 2.97,-4.835" /></g></g></g><g
       id="g222"><g
         clip-path="url(#clipPath228)"
         id="g224"><g
           id="g230"><g
             id="g232"><path
               id="path242"
               style="fill:url(#linearGradient240);stroke:none"
               d="m 80.826,72.309 c -0.221,-0.054 -0.358,-0.278 -0.305,-0.5 v 0 c 0.054,-0.221 0.277,-0.358 0.5,-0.304 v 0 l 2.782,0.672 -0.194,0.804 z" /></g></g></g></g><g
       id="g244"><g
         clip-path="url(#clipPath250)"
         id="g246"><g
           transform="translate(80.8848,72.0664)"
           id="g252"><path
             id="path254"
             style="fill:#3b1612;fill-opacity:1;fill-rule:nonzero;stroke:none"
             d="M 0,0 C -0.088,-0.021 -0.143,-0.11 -0.121,-0.198 -0.1,-0.287 -0.011,-0.341 0.077,-0.32 L 2.618,0.294 2.541,0.614 Z M 3.219,-0.072 0.194,-0.803 c -0.355,-0.086 -0.713,0.133 -0.799,0.488 -0.086,0.355 0.133,0.713 0.488,0.799 l 3.025,0.731 z" /></g></g></g><g
       id="g256"><g
         clip-path="url(#clipPath262)"
         id="g258"><g
           id="g264"><g
             id="g266"><path
               id="path276"
               style="fill:url(#linearGradient274);stroke:none"
               d="m 88.842,74.245 c -0.223,-0.054 -0.359,-0.276 -0.305,-0.498 v 0 c 0.054,-0.222 0.277,-0.358 0.499,-0.305 v 0 l 2.33,0.563 -0.194,0.804 z" /></g></g></g></g><g
       id="g278"><g
         clip-path="url(#clipPath284)"
         id="g280"><g
           transform="translate(88.7441,73.9663)"
           id="g286"><path
             id="path288"
             style="fill:#3b1612;fill-opacity:1;fill-rule:nonzero;stroke:none"
             d="m 0,0 c -0.002,-0.001 -0.004,-0.003 -0.003,-0.005 l 0.075,-0.312 c 0,-0.002 0.003,-0.004 0.005,-0.003 L 2.321,0.222 2.244,0.542 Z M 2.922,-0.145 0.194,-0.804 c -0.269,-0.065 -0.541,0.101 -0.606,0.37 l -0.075,0.312 c -0.065,0.269 0.101,0.54 0.37,0.605 l 2.728,0.66 z" /></g></g></g><g
       id="g290"><g
         clip-path="url(#clipPath296)"
         id="g292"><g
           id="g298"><g
             id="g300"><path
               id="path310"
               style="fill:url(#linearGradient308);stroke:none"
               d="m 95.825,75.934 c -0.222,-0.054 -0.358,-0.277 -0.304,-0.5 v 0 c 0.054,-0.221 0.277,-0.358 0.498,-0.304 v 0 l 2.33,0.564 -0.194,0.802 z" /></g></g></g></g><g
       id="g312"><g
         clip-path="url(#clipPath318)"
         id="g314"><g
           transform="translate(95.7207,75.6524)"
           id="g320"><path
             id="path322"
             style="fill:#3b1612;fill-opacity:1;fill-rule:nonzero;stroke:none"
             d="M 0,0 0.081,-0.322 2.329,0.224 2.252,0.544 Z M 2.93,-0.143 0.194,-0.804 c -0.264,-0.064 -0.533,0.1 -0.596,0.365 l -0.079,0.326 c -0.064,0.265 0.099,0.532 0.365,0.597 l 2.734,0.661 z" /></g></g></g><g
       id="g324"><g
         clip-path="url(#clipPath330)"
         id="g326"><g
           id="g332"><g
             id="g334"><path
               id="path344"
               style="fill:url(#linearGradient342);stroke:none"
               d="m 104.085,77.93 c -0.221,-0.054 -0.358,-0.277 -0.305,-0.498 v 0 c 0.054,-0.223 0.278,-0.36 0.499,-0.306 v 0 l 5.049,1.221 -0.194,0.803 z" /></g></g></g></g><g
       id="g346"><g
         clip-path="url(#clipPath352)"
         id="g348"><g
           transform="translate(103.9814,77.649)"
           id="g354"><path
             id="path356"
             style="fill:#3b1612;fill-opacity:1;fill-rule:nonzero;stroke:none"
             d="m 0,0 0.08,-0.322 4.966,1.203 -0.077,0.32 z m 5.003,0.359 -4.81,-1.163 c -0.265,-0.064 -0.532,0.099 -0.596,0.365 l -0.079,0.325 c -0.064,0.266 0.099,0.533 0.365,0.597 L 4.692,1.646 C 5.047,1.732 5.405,1.513 5.491,1.158 5.577,0.802 5.358,0.445 5.003,0.359" /></g><g
           transform="translate(87.6089,81.9058)"
           id="g358"><path
             id="path360"
             style="fill:#e52921;fill-opacity:1;fill-rule:evenodd;stroke:none"
             d="m 0,0 c -0.708,0.797 -0.343,2.299 0.422,2.92 0,0 -0.707,-1.338 0.062,-2.453 v 0 L 0.488,0.461 c 0.028,-0.04 0.057,-0.08 0.09,-0.119 l 0.337,-0.45 c 0.707,-0.798 0.343,-2.299 -0.423,-2.92 0,0 0.707,1.338 -0.061,2.452 L 0.427,-0.57 c -0.028,0.04 -0.058,0.08 -0.09,0.119 z" /></g><g
           transform="translate(87.6089,81.9058)"
           id="g362"><path
             id="path364"
             style="fill:none;stroke:#e52921;stroke-width:0.56699997;stroke-linecap:butt;stroke-linejoin:miter;stroke-miterlimit:22.9260006;stroke-dasharray:none;stroke-opacity:1"
             d="m 0,0 c -0.708,0.797 -0.343,2.299 0.422,2.92 0,0 -0.707,-1.338 0.062,-2.453 v 0 L 0.488,0.461 c 0.028,-0.04 0.057,-0.08 0.09,-0.119 l 0.337,-0.45 c 0.707,-0.798 0.343,-2.299 -0.423,-2.92 0,0 0.707,1.338 -0.061,2.452 L 0.427,-0.57 c -0.028,0.04 -0.058,0.08 -0.09,0.119 z" /></g><g
           transform="translate(84.7236,82.5069)"
           id="g366"><path
             id="path368"
             style="fill:#e52921;fill-opacity:1;fill-rule:evenodd;stroke:none"
             d="m 0,0 c -0.999,1.126 -0.485,3.248 0.597,4.125 0,0 -0.999,-1.89 0.087,-3.465 v 0 L 0.689,0.652 C 0.729,0.595 0.771,0.539 0.816,0.483 l 0.476,-0.636 c 1,-1.127 0.485,-3.248 -0.596,-4.126 0,0 0.998,1.891 -0.088,3.466 h 0.001 l -0.006,0.008 c -0.04,0.056 -0.082,0.113 -0.126,0.168 z" /></g><g
           transform="translate(84.7236,82.5069)"
           id="g370"><path
             id="path372"
             style="fill:none;stroke:#e52921;stroke-width:0.56699997;stroke-linecap:butt;stroke-linejoin:miter;stroke-miterlimit:22.9260006;stroke-dasharray:none;stroke-opacity:1"
             d="m 0,0 c -0.999,1.126 -0.485,3.248 0.597,4.125 0,0 -0.999,-1.89 0.087,-3.465 v 0 L 0.689,0.652 C 0.729,0.595 0.771,0.539 0.816,0.483 l 0.476,-0.636 c 1,-1.127 0.485,-3.248 -0.596,-4.126 0,0 0.998,1.891 -0.088,3.466 h 0.001 l -0.006,0.008 c -0.04,0.056 -0.082,0.113 -0.126,0.168 z" /></g><g
           transform="translate(89.1113,85.1079)"
           id="g374"><path
             id="path376"
             style="fill:#e52921;fill-opacity:1;fill-rule:evenodd;stroke:none"
             d="m 0,0 c -1.299,1.465 -0.631,4.222 0.775,5.362 0,0 -1.298,-2.457 0.114,-4.504 L 0.896,0.848 C 0.947,0.774 1.002,0.701 1.061,0.628 L 1.68,-0.199 c 1.299,-1.465 0.631,-4.222 -0.776,-5.363 0,0 1.298,2.458 -0.114,4.505 h 0.001 l -0.008,0.01 C 0.732,-0.973 0.678,-0.9 0.619,-0.827 Z" /></g><g
           transform="translate(89.1113,85.1079)"
           id="g378"><path
             id="path380"
             style="fill:none;stroke:#e52921;stroke-width:0.56699997;stroke-linecap:butt;stroke-linejoin:miter;stroke-miterlimit:22.9260006;stroke-dasharray:none;stroke-opacity:1"
             d="m 0,0 c -1.299,1.465 -0.631,4.222 0.775,5.362 0,0 -1.298,-2.457 0.114,-4.504 L 0.896,0.848 C 0.947,0.774 1.002,0.701 1.061,0.628 L 1.68,-0.199 c 1.299,-1.465 0.631,-4.222 -0.776,-5.363 0,0 1.298,2.458 -0.114,4.505 h 0.001 l -0.008,0.01 C 0.732,-0.973 0.678,-0.9 0.619,-0.827 Z" /></g><g
           transform="translate(69.8476,74.7989)"
           id="g382"><path
             id="path384"
             style="fill:#010101;fill-opacity:1;fill-rule:nonzero;stroke:none"
             d="m 0,0 c -1.253,0 -2.272,-1.02 -2.272,-2.272 0,-1.253 1.019,-2.273 2.272,-2.273 1.253,0 2.272,1.02 2.272,2.273 C 2.272,-1.02 1.253,0 0,0" /></g><g
           transform="translate(55.5303,19.3316)"
           id="g386"><path
             id="path388"
             style="fill:#f3dfb7;fill-opacity:1;fill-rule:nonzero;stroke:none"
             d="M 0,0 -0.852,0.269 -2.9,4.373 -3.891,1.226 -4.54,1.43 -2.498,7.914 -1.85,7.71 -2.784,4.742 1.097,6.783 1.949,6.515 -2.155,4.345 Z" /></g><g
           transform="translate(59.6597,19.1343)"
           id="g390"><path
             id="path392"
             style="fill:#f3dfb7;fill-opacity:1;fill-rule:nonzero;stroke:none"
             d="M 0,0 3.261,-0.521 3.16,-1.154 -0.772,-0.526 0.299,6.187 4.184,5.567 4.083,4.935 0.87,5.447 0.49,3.068 3.463,2.594 3.362,1.961 0.389,2.436 Z" /></g><g
           transform="translate(69.331,23.812)"
           id="g394"><path
             id="path396"
             style="fill:#f3dfb7;fill-opacity:1;fill-rule:nonzero;stroke:none"
             d="m 0,0 -2.059,0.012 -0.013,-2.37 2.059,-0.011 c 0.318,-0.002 0.589,0.111 0.813,0.34 0.225,0.228 0.338,0.508 0.34,0.839 0.002,0.323 -0.109,0.602 -0.331,0.836 C 0.587,-0.119 0.317,-0.001 0,0 m 0.194,-5.518 c 0.337,-0.002 0.624,0.119 0.862,0.36 0.237,0.242 0.357,0.537 0.359,0.887 0.002,0.343 -0.115,0.638 -0.35,0.885 -0.235,0.248 -0.521,0.372 -0.857,0.374 L -2.075,-3 -2.088,-5.506 Z m 0.822,2.881 C 1.345,-2.781 1.608,-2.998 1.804,-3.287 2,-3.576 2.097,-3.905 2.095,-4.274 2.092,-4.799 1.905,-5.245 1.534,-5.612 1.163,-5.979 0.715,-6.161 0.191,-6.158 l -2.962,0.014 0.035,6.8 2.739,-0.014 C 0.508,0.639 0.938,0.457 1.292,0.096 1.646,-0.266 1.822,-0.695 1.82,-1.194 1.816,-1.829 1.548,-2.31 1.016,-2.637" /></g><g
           transform="translate(75.729,20.3853)"
           id="g398"><path
             id="path400"
             style="fill:#f3dfb7;fill-opacity:1;fill-rule:nonzero;stroke:none"
             d="M 0,0 2.709,0.428 0.788,3.805 Z M 3.931,-1.719 3.048,-0.167 -0.139,-0.671 -0.501,-2.419 -1.211,-2.531 0.309,4.592 1,4.701 4.641,-1.607 Z" /></g><g
           transform="translate(85.0639,23.3931)"
           id="g402"><path
             id="path404"
             style="fill:#f3dfb7;fill-opacity:1;fill-rule:nonzero;stroke:none"
             d="M 0,0 C 0.401,0.127 0.69,0.367 0.868,0.719 1.045,1.07 1.068,1.453 0.937,1.866 0.806,2.28 0.566,2.579 0.219,2.765 -0.129,2.95 -0.503,2.979 -0.904,2.852 L -2.571,2.323 -1.667,-0.528 Z M -1.098,3.463 C -0.518,3.646 0.028,3.606 0.541,3.341 1.053,3.075 1.401,2.652 1.585,2.072 1.769,1.491 1.728,0.945 1.462,0.434 1.197,-0.079 0.774,-0.427 0.194,-0.611 l -1.667,-0.529 0.764,-2.407 -0.648,-0.205 -2.056,6.481 z" /></g><g
           transform="translate(46.4443,26.9702)"
           id="g406"><path
             id="path408"
             style="fill:#ee743b;fill-opacity:1;fill-rule:nonzero;stroke:none"
             d="m 0,0 -0.142,-0.87 c -0.011,-0.068 0.062,-0.12 0.123,-0.087 l 0.739,0.408 0.738,-0.408 c 0.06,-0.033 0.135,0.018 0.123,0.087 L 1.439,0 2.04,0.615 C 2.087,0.664 2.06,0.747 1.992,0.757 L 1.166,0.884 0.795,1.673 c -0.027,0.058 -0.124,0.058 -0.151,0 L 0.273,0.884 -0.553,0.758 C -0.621,0.747 -0.648,0.664 -0.601,0.615 Z" /></g><g
           transform="translate(90.2744,26.9702)"
           id="g410"><path
             id="path412"
             style="fill:#ee743b;fill-opacity:1;fill-rule:nonzero;stroke:none"
             d="m 0,0 -0.143,-0.87 c -0.01,-0.068 0.063,-0.12 0.124,-0.087 L 0.72,-0.549 1.458,-0.957 C 1.519,-0.99 1.593,-0.939 1.581,-0.87 L 1.439,0 2.04,0.615 C 2.087,0.664 2.06,0.747 1.992,0.757 L 1.166,0.884 0.795,1.673 c -0.027,0.058 -0.124,0.058 -0.151,0 L 0.273,0.884 -0.554,0.758 C -0.621,0.747 -0.648,0.664 -0.601,0.615 Z" /></g><path
           id="path414"
           style="fill:#ee743b;fill-opacity:1;fill-rule:nonzero;stroke:none"
           d="m 106.132,71.769 h -2.567 v 0.721 h 2.567 z" /></g></g></g></svg>